<svg width="200" height="200" viewBox="0 0 200 200" fill="none" xmlns="http://www.w3.org/2000/svg">
<path d="M27.3225 75.2027L26.8958 75.672C26.6114 76.0133 26.1705 76.4116 25.5732 76.8667C25.0043 77.3218 24.3358 77.7769 23.5678 78.232C22.8283 78.6871 21.9181 79.0711 20.8372 79.384C19.7563 79.7253 18.6469 79.896 17.5092 79.896C9.82917 79.896 5.98917 76.0987 5.98917 68.504C5.98917 67.0249 6.25939 65.6738 6.79983 64.4507C7.34028 63.1991 8.03717 62.1467 8.8905 61.2933C9.74383 60.44 10.7678 59.6862 11.9625 59.032C13.1572 58.3493 14.3518 57.8231 15.5465 57.4533C16.7696 57.0551 18.0496 56.728 19.3865 56.472C20.7234 56.216 21.9181 56.0453 22.9705 55.96C24.0229 55.8747 25.0327 55.832 25.9998 55.832V55.064C25.9998 53.3289 25.5305 52.1058 24.5918 51.3947C23.6816 50.6836 22.2025 50.328 20.1545 50.328C18.3909 50.328 16.5563 50.5413 14.6505 50.968C12.7447 51.3662 11.2514 51.8498 10.1705 52.4187L7.43983 46.616C9.37406 45.3644 11.8914 44.2693 14.9918 43.3307C18.0923 42.3636 21.2496 41.88 24.4638 41.88C27.3083 41.88 29.6549 42.1644 31.5038 42.7333C33.3527 43.2738 34.8461 44.2124 35.9838 45.5493C37.1501 46.8578 37.9749 48.536 38.4585 50.584C38.9421 52.6036 39.1838 55.1778 39.1838 58.3067V75.672L40.3785 79H28.6878L27.3225 75.2027ZM23.9518 72.3867C24.3216 72.3867 24.6629 72.3156 24.9758 72.1733C25.3172 72.0027 25.5732 71.8462 25.7438 71.704C25.9145 71.5333 25.9998 71.448 25.9998 71.448V61.208C24.2647 61.208 22.8852 61.6916 21.8612 62.6587C20.8372 63.5973 20.3252 65.0622 20.3252 67.0533C20.3252 70.6089 21.5341 72.3867 23.9518 72.3867ZM65.5045 73.3253C65.3338 73.7236 64.9783 74.2498 64.4378 74.904C63.9258 75.5582 63.2432 76.2836 62.3898 77.08C61.5365 77.848 60.4841 78.5022 59.2325 79.0427C57.9809 79.6116 56.7152 79.896 55.4352 79.896C51.4245 79.896 48.5516 78.7013 46.8165 76.312C45.1098 73.9227 44.2565 69.9404 44.2565 64.3653V49.176L42.7632 47.64V42.7333H58.2512V67.0533C58.2227 68.3333 58.4361 69.2862 58.8912 69.912C59.3463 70.5093 60.1712 70.808 61.3658 70.808C61.5365 70.808 61.6929 70.808 61.8352 70.808C61.9774 70.7796 62.1196 70.7511 62.2618 70.7227C62.4041 70.6658 62.5178 70.6231 62.6032 70.5947C62.7169 70.5662 62.8449 70.5236 62.9872 70.4667C63.1294 70.3813 63.2432 70.3102 63.3285 70.2533C63.4138 70.1964 63.5276 70.1253 63.6698 70.04C63.8121 69.9262 63.9116 69.8409 63.9685 69.784C64.0538 69.7271 64.1676 69.6418 64.3098 69.528C64.4805 69.3858 64.6085 69.2862 64.6938 69.2293V49.176L62.3898 47.64V42.7333H78.6458V79H66.8272L65.5045 73.3253ZM98.2968 79H84.5155V51.3947L81.9555 49.816V45.2507L91.1288 42.7333H98.3822V48.2373C98.5244 48.0382 98.7235 47.7822 98.9795 47.4693C99.2639 47.128 99.7759 46.6018 100.515 45.8907C101.255 45.1796 102.009 44.5538 102.777 44.0133C103.573 43.4729 104.526 42.9893 105.635 42.5627C106.773 42.1076 107.897 41.88 109.006 41.88C111.851 41.88 114.027 42.4204 115.534 43.5013C117.042 44.5822 118.108 46.3458 118.734 48.792C119.701 47.1138 121.18 45.5493 123.172 44.0987C125.191 42.6196 127.41 41.88 129.827 41.88C132.501 41.88 134.578 42.3493 136.057 43.288C137.564 44.1982 138.659 45.7627 139.342 47.9813C140.025 50.2 140.366 53.3289 140.366 57.368V79H126.5V56.1307C126.5 54.8791 126.201 53.8978 125.604 53.1867C125.006 52.4756 124.096 52.12 122.873 52.12C122.048 52.12 120.924 52.8027 119.502 54.168C119.587 55.5333 119.63 57.0124 119.63 58.6053V79H105.55V56.1307C105.636 53.4569 104.498 52.12 102.137 52.12C101.966 52.12 101.795 52.1342 101.625 52.1627C101.483 52.1911 101.34 52.2196 101.198 52.248C101.084 52.2764 100.942 52.3333 100.771 52.4187C100.629 52.4756 100.501 52.5324 100.387 52.5893C100.274 52.6178 100.146 52.6889 100.003 52.8027C99.8613 52.888 99.7475 52.9591 99.6622 53.016C99.5768 53.0729 99.4488 53.1724 99.2782 53.3147C99.1359 53.4284 99.0222 53.5138 98.9368 53.5707C98.8799 53.6276 98.7662 53.7271 98.5955 53.8693C98.4533 53.9831 98.3537 54.0684 98.2968 54.1253V79ZM146.277 51.096L148.838 21.912H160.059L153.701 51.096H146.277ZM177.612 79.896C174.938 79.896 172.236 79.4551 169.505 78.5733C166.774 77.6631 165.025 76.7813 164.257 75.928L165.366 69.0587C166.334 69.9973 167.941 70.808 170.188 71.4907C172.463 72.1733 174.782 72.5147 177.142 72.5147C178.849 72.5147 180.015 72.3013 180.641 71.8747C181.295 71.448 181.622 70.8507 181.622 70.0827C181.622 69.3431 181.054 68.6889 179.916 68.12C178.778 67.5227 176.929 66.84 174.369 66.072C167.742 64.0809 164.428 59.9564 164.428 53.6987C164.428 51.1387 165.167 48.9484 166.646 47.128C168.126 45.2791 170.017 43.9422 172.321 43.1173C174.625 42.2924 177.199 41.88 180.044 41.88C184.908 41.88 188.492 42.776 190.796 44.568C191.308 45.0516 191.564 45.2933 191.564 45.2933L189.687 51.3947C187.809 49.5458 185.221 48.6213 181.921 48.6213C179.219 48.6213 177.868 49.4178 177.868 51.0107C177.868 51.4658 177.967 51.8498 178.167 52.1627C178.366 52.4471 178.693 52.7031 179.148 52.9307C179.631 53.1298 180.101 53.3004 180.556 53.4427C181.011 53.5564 181.651 53.7271 182.476 53.9547C183.301 54.1538 184.012 54.3387 184.609 54.5093C187.937 55.6187 190.355 57.1831 191.862 59.2027C193.37 61.2222 194.124 63.7396 194.124 66.7547C194.124 75.5156 188.62 79.896 177.612 79.896ZM24.2493 149.896C22.0591 149.896 20.0111 149.697 18.1053 149.299C16.228 148.929 14.6493 148.431 13.3693 147.805C12.0893 147.18 11.0369 146.582 10.212 146.013C9.41556 145.444 8.74711 144.876 8.20667 144.307L9.27333 133.939C10.4396 135.503 12.004 136.868 13.9667 138.035C15.9293 139.172 18.0484 139.741 20.324 139.741C22.5996 139.741 24.2351 139.5 25.2307 139.016C26.2547 138.532 26.7667 137.651 26.7667 136.371C26.7667 135.005 26.1836 133.839 25.0173 132.872C23.8796 131.905 21.9027 130.739 19.0867 129.373C18.0627 128.861 17.1951 128.406 16.484 128.008C15.7729 127.581 14.82 126.899 13.6253 125.96C12.4591 124.993 11.5062 123.997 10.7667 122.973C10.0271 121.921 9.37289 120.584 8.804 118.963C8.23511 117.313 7.95067 115.549 7.95067 113.672C7.95067 103.517 13.6822 98.44 25.1453 98.44C26.9658 98.44 28.6724 98.6391 30.2653 99.0373C31.8867 99.4071 33.1524 99.8196 34.0627 100.275C34.9729 100.73 35.7978 101.27 36.5373 101.896C37.3053 102.493 37.7889 102.92 37.988 103.176C38.1871 103.404 38.3293 103.588 38.4147 103.731L36.2813 111.965C35.172 110.657 33.7782 109.69 32.1 109.064C30.4502 108.41 28.8716 108.083 27.364 108.083C23.7231 108.083 21.9027 109.22 21.9027 111.496C21.9027 112.093 22.0164 112.634 22.244 113.117C22.4716 113.601 22.8413 114.042 23.3533 114.44C23.8653 114.838 24.3347 115.18 24.7613 115.464C25.2164 115.748 25.828 116.104 26.596 116.531C27.3924 116.929 27.9898 117.256 28.388 117.512C32.5409 119.276 35.5844 121.366 37.5187 123.784C39.4813 126.202 40.4627 129.146 40.4627 132.616C40.4627 138.248 39.0689 142.543 36.2813 145.501C33.5222 148.431 29.5116 149.896 24.2493 149.896ZM59.1063 149H44.9837V98.9947H50.6157C52.1232 98.9947 54.3988 98.9378 57.4423 98.824C60.4859 98.6818 62.989 98.6107 64.9517 98.6107C70.4699 98.6107 74.6512 100.076 77.4957 103.005C80.3401 105.935 81.7623 110.33 81.7623 116.189C81.7623 119.716 81.293 122.931 80.3543 125.832C79.4441 128.705 78.2068 131.066 76.6423 132.915C75.0779 134.764 73.3001 136.186 71.309 137.181C69.3179 138.177 67.213 138.675 64.9943 138.675C64.7099 138.675 64.4112 138.675 64.0983 138.675C63.8139 138.675 63.5437 138.675 63.2877 138.675C63.0601 138.646 62.7757 138.632 62.4343 138.632C62.1214 138.604 61.8654 138.589 61.6663 138.589C61.4957 138.561 61.2397 138.547 60.8983 138.547C60.5854 138.518 60.3721 138.504 60.2583 138.504C60.1446 138.504 59.9312 138.49 59.6183 138.461C59.3054 138.433 59.1348 138.419 59.1063 138.419V149ZM67.7677 114.312C67.7677 112.207 67.1988 110.5 66.061 109.192C64.9232 107.884 63.2877 107.229 61.1543 107.229H59.1063V129.416H60.685C62.9321 129.416 64.6672 128.662 65.8903 127.155C67.1419 125.647 67.7677 123.471 67.7677 120.627V114.312ZM109.517 149L107.597 141.021H95.4797L93.8583 149H81.3143L94.3277 102.451L93.3037 98.9947H110.925L125.176 149H109.517ZM100.984 113.672L97.229 132.317H105.506L100.984 113.672ZM158.432 145.459L158.048 145.928C157.764 146.212 157.28 146.582 156.597 147.037C155.943 147.464 155.147 147.905 154.208 148.36C153.298 148.787 152.075 149.142 150.539 149.427C149.003 149.74 147.353 149.896 145.589 149.896C141.863 149.896 138.677 149.284 136.032 148.061C133.387 146.81 131.31 145.004 129.803 142.643C128.324 140.253 127.257 137.565 126.603 134.579C125.948 131.564 125.621 128.079 125.621 124.125C125.621 119.916 125.948 116.289 126.603 113.245C127.257 110.173 128.338 107.485 129.845 105.181C131.381 102.849 133.486 101.1 136.16 99.9333C138.834 98.7671 142.091 98.184 145.931 98.184C147.694 98.184 149.344 98.3404 150.88 98.6533C152.444 98.9662 153.668 99.3218 154.549 99.72C155.46 100.118 156.27 100.573 156.981 101.085C157.721 101.597 158.176 101.953 158.347 102.152C158.546 102.351 158.688 102.508 158.773 102.621L158.133 112.435H151.648L149.429 107.357C148.917 107.215 148.491 107.144 148.149 107.144C146.244 107.144 144.779 107.585 143.755 108.467C142.731 109.32 141.948 111.012 141.408 113.544C140.868 116.047 140.597 119.66 140.597 124.381C140.597 127.197 140.768 129.658 141.109 131.763C141.479 133.868 141.92 135.489 142.432 136.627C142.944 137.736 143.556 138.632 144.267 139.315C144.978 139.997 145.618 140.438 146.187 140.637C146.756 140.808 147.367 140.893 148.021 140.893C149.472 140.893 150.994 140.723 152.587 140.381C154.18 140.012 155.488 139.457 156.512 138.717L158.432 145.459ZM192.484 149H162.234V98.9947H191.844L190.991 109.064L176.356 108.637V118.28H187.876V128.264L176.356 127.411V138.76L192.484 138.333V149Z" fill="black"/>
<line x1="7" y1="89.5" x2="193" y2="89.5" stroke="black"/>
</svg>
